<svg width="99" height="80" viewBox="0 0 99 80" fill="none" xmlns="http://www.w3.org/2000/svg">
<path d="M96.4296 38.7378L92.5652 36.6498C90.8687 28.3911 86.8157 21.0051 81.1291 15.1772C77.9245 11.8738 74.2171 9.10012 70.1013 6.91858V4.48773C70.1013 3.20997 67.6508 2.05688 63.6921 1.24659C59.9848 0.467472 54.9579 0 49.4283 0C47.4804 0 45.5953 0.0623296 43.7732 0.155824C35.1018 0.685625 28.7553 2.43085 28.7553 4.45656V6.88742C25.9905 8.35216 23.4143 10.0974 21.0265 12.0919C13.6432 18.3249 8.33365 26.8952 6.29148 36.6498L2.42707 38.7378C0.667664 39.6728 -0.274875 41.6362 0.0707228 43.5684L3.58954 63.171C3.93513 65.1656 5.56887 66.6615 7.57961 66.9108L13.4862 67.6276C16.6908 71.0557 20.7438 73.7359 25.425 75.6993C31.7086 78.3483 39.0918 79.7507 47.0406 79.9688C47.826 80 48.6429 80 49.4283 80C55.492 80 61.2729 79.3455 66.5511 78.0055C73.4631 76.2291 79.4953 73.2372 84.0509 68.9365C84.585 68.4379 85.1191 67.9081 85.6218 67.3471L91.1828 66.8173C93.2564 66.6303 94.9215 65.1032 95.2986 63.0464L98.786 43.5372C99.1316 41.6362 98.1891 39.6728 96.4296 38.7378Z" fill="url(#paint0_linear_97_675)"/>
<path d="M49.4301 69.3104C38.9362 69.3104 30.3274 67.16 24.5464 63.0774C18.9224 59.1195 16.189 53.354 16.189 45.4693C16.189 27.2691 31.1129 12.4658 49.4616 12.4658C67.8102 12.4658 82.7342 27.2691 82.7342 45.4693C82.7342 53.354 80.0007 59.0883 74.3767 63.0774C68.5328 67.16 59.924 69.3104 49.4301 69.3104Z" fill="white"/>
<path d="M56.3587 26.9913C58.2973 26.8626 60.6868 27.9695 62.1729 29.1373C64.3858 30.8765 65.8512 33.472 66.1702 36.256C66.3679 37.9819 66.1523 40.01 65.0161 41.4074C64.3667 42.2062 63.5029 42.5946 62.4921 42.7054C60.7521 42.8356 59.1222 41.9604 57.8044 40.9077C55.223 38.8455 53.0208 35.2806 52.6745 31.9795C52.5393 30.6905 52.6631 29.4201 53.5182 28.3842C54.2282 27.5243 55.2648 27.1021 56.3587 26.9913Z" fill="black"/>
<path d="M57.7291 31.2496C58.4083 31.2071 59.055 31.3078 59.6457 31.6608C60.2928 32.0475 60.7492 32.7146 60.915 33.4429C61.083 34.1806 60.9372 34.9524 60.5255 35.587C60.0626 36.3007 59.3969 36.6879 58.5721 36.8621C57.8685 36.9239 57.2549 36.8383 56.6461 36.4613C55.9738 36.045 55.4954 35.3666 55.3276 34.5981C55.1714 33.8831 55.3341 33.1203 55.7397 32.5132C56.2132 31.8046 56.905 31.4213 57.7291 31.2496Z" fill="white"/>
<path d="M42.1213 26.9928C42.131 26.9923 42.1407 26.9914 42.1504 26.9911C43.2367 26.9621 44.3064 27.3626 45.0913 28.1142C45.9068 28.8952 46.234 29.9475 46.2427 31.0508C46.2682 34.2172 44.2942 37.8625 42.0823 40.0858C40.6386 41.5369 38.8432 42.6322 36.7441 42.6459C35.8465 42.5763 34.9863 42.2401 34.3024 41.653C33.202 40.7083 32.6302 39.3471 32.5288 37.926C32.3376 35.2458 33.5371 32.4791 35.2844 30.4792C37.0688 28.437 39.3985 27.1919 42.1213 26.9928Z" fill="black"/>
<path d="M40.5771 31.2556C41.2669 31.2079 41.9594 31.4222 42.5001 31.8507C43.1027 32.328 43.5151 33.0653 43.5879 33.8285C43.659 34.5752 43.384 35.3525 42.8966 35.9209C42.3681 36.5372 41.6733 36.8325 40.8728 36.8955C40.2206 36.8986 39.6291 36.7516 39.1031 36.3553C38.4861 35.8904 38.0274 35.2061 37.9225 34.4364C37.8214 33.6947 38.0363 32.9401 38.4991 32.3513C39.0275 31.679 39.7414 31.3622 40.5771 31.2556Z" fill="white"/>
<g filter="url(#filter0_ddd_97_675)">
<path fill-rule="evenodd" clip-rule="evenodd" d="M46.6523 46.9568C46.3439 46.1549 46.4409 46.0091 47.5637 45.5864C48.4889 45.2375 49.1761 45.1752 48.7598 45.4773C48.1136 45.946 49.1193 46.7183 49.8621 46.3235C50.2019 46.1433 50.2844 45.4993 49.9829 45.3786C49.5022 45.186 50.4664 45.3123 50.9921 45.5104C51.3211 45.6347 51.7035 45.7738 51.8416 45.8197C53.1645 46.2592 51.0638 49.1792 49.4249 49.1792C48.3633 49.1792 47.1261 48.1875 46.6523 46.9568ZM44.9972 51.4858C44.8161 51.1382 44.8197 51.0567 45.023 50.8545C45.137 50.7414 45.1957 50.6671 45.264 50.6568C45.3739 50.6403 45.5089 50.7893 45.9397 51.2085C46.9228 52.1647 47.6563 52.1859 48.6592 51.2865C49.3081 50.7047 49.6407 50.6408 49.8637 51.0543C50.4527 52.1467 52.2224 52.2018 52.9173 51.1494C53.2374 50.6647 53.9081 50.6192 53.9081 51.0819C53.9081 52.4464 51.6512 53.2563 50.0525 52.4656L49.2779 52.0828L48.8258 52.402C47.6257 53.2503 45.6732 52.7828 44.9972 51.4858Z" fill="black"/>
</g>
<defs>
<filter id="filter0_ddd_97_675" x="40.8657" y="45.283" width="17.0425" height="15.5471" filterUnits="userSpaceOnUse" color-interpolation-filters="sRGB">
<feFlood flood-opacity="0" result="BackgroundImageFix"/>
<feColorMatrix in="SourceAlpha" type="matrix" values="0 0 0 0 0 0 0 0 0 0 0 0 0 0 0 0 0 0 127 0" result="hardAlpha"/>
<feOffset dy="4"/>
<feGaussianBlur stdDeviation="2"/>
<feComposite in2="hardAlpha" operator="out"/>
<feColorMatrix type="matrix" values="0 0 0 0 0 0 0 0 0 0 0 0 0 0 0 0 0 0 0.25 0"/>
<feBlend mode="normal" in2="BackgroundImageFix" result="effect1_dropShadow_97_675"/>
<feColorMatrix in="SourceAlpha" type="matrix" values="0 0 0 0 0 0 0 0 0 0 0 0 0 0 0 0 0 0 127 0" result="hardAlpha"/>
<feOffset dy="4"/>
<feGaussianBlur stdDeviation="2"/>
<feComposite in2="hardAlpha" operator="out"/>
<feColorMatrix type="matrix" values="0 0 0 0 0 0 0 0 0 0 0 0 0 0 0 0 0 0 0.25 0"/>
<feBlend mode="normal" in2="effect1_dropShadow_97_675" result="effect2_dropShadow_97_675"/>
<feColorMatrix in="SourceAlpha" type="matrix" values="0 0 0 0 0 0 0 0 0 0 0 0 0 0 0 0 0 0 127 0" result="hardAlpha"/>
<feOffset dy="4"/>
<feGaussianBlur stdDeviation="2"/>
<feComposite in2="hardAlpha" operator="out"/>
<feColorMatrix type="matrix" values="0 0 0 0 0 0 0 0 0 0 0 0 0 0 0 0 0 0 0.25 0"/>
<feBlend mode="normal" in2="effect2_dropShadow_97_675" result="effect3_dropShadow_97_675"/>
<feBlend mode="normal" in="SourceGraphic" in2="effect3_dropShadow_97_675" result="shape"/>
</filter>
<linearGradient id="paint0_linear_97_675" x1="25.4507" y1="73.1891" x2="79.0008" y2="14.4171" gradientUnits="userSpaceOnUse">
<stop stop-color="#FF61D3"/>
<stop offset="0.5" stop-color="#B318FF"/>
<stop offset="1" stop-color="#00F0FF"/>
</linearGradient>
</defs>
</svg>
